<svg width="25" height="25" viewBox="0 0 25 25" fill="none" xmlns="http://www.w3.org/2000/svg">
<path d="M14.1608 2.55219H6.16077C5.63033 2.55219 5.12163 2.7629 4.74655 3.13797C4.37148 3.51304 4.16077 4.02175 4.16077 4.55219V20.5522C4.16077 21.0826 4.37148 21.5913 4.74655 21.9664C5.12163 22.3415 5.63033 22.5522 6.16077 22.5522H18.1608C18.6912 22.5522 19.1999 22.3415 19.575 21.9664C19.9501 21.5913 20.1608 21.0826 20.1608 20.5522V8.55219L14.1608 2.55219Z" stroke="black" stroke-width="2" stroke-linecap="round" stroke-linejoin="round"/>
<path d="M14.1608 2.55219V8.55219H20.1608" stroke="black" stroke-width="2" stroke-linecap="round" stroke-linejoin="round"/>
<path d="M16.1608 13.5522H8.16077" stroke="black" stroke-width="2" stroke-linecap="round" stroke-linejoin="round"/>
<path d="M16.1608 17.5522H8.16077" stroke="black" stroke-width="2" stroke-linecap="round" stroke-linejoin="round"/>
<path d="M10.1608 9.55219H9.16077H8.16077" stroke="black" stroke-width="2" stroke-linecap="round" stroke-linejoin="round"/>
</svg>
