<svg width="35" height="34" viewBox="0 0 35 34" fill="none" xmlns="http://www.w3.org/2000/svg">
<path fill-rule="evenodd" clip-rule="evenodd" d="M30.625 17C30.625 24.0416 24.7487 29.75 17.5 29.75C10.2513 29.75 4.375 24.0416 4.375 17C4.375 9.95837 10.2513 4.25 17.5 4.25C24.7487 4.25 30.625 9.95837 30.625 17ZM17.5 25.0833C16.9477 25.0833 16.5 24.6356 16.5 24.0833V18H10.2083C9.65605 18 9.20833 17.5523 9.20833 17C9.20833 16.4477 9.65605 16 10.2083 16H16.5V9.91667C16.5 9.36438 16.9477 8.91667 17.5 8.91667C18.0523 8.91667 18.5 9.36438 18.5 9.91667V16H24.7917C25.344 16 25.7917 16.4477 25.7917 17C25.7917 17.5523 25.344 18 24.7917 18H18.5V24.0833C18.5 24.6356 18.0523 25.0833 17.5 25.0833Z" fill="#222222"/>
</svg>
